<svg width="532" height="532" viewBox="0 0 532 532" fill="none" xmlns="http://www.w3.org/2000/svg">
<g clip-path="url(#clip0_58_3)">
<path fill-rule="evenodd" clip-rule="evenodd" d="M295.192 236.508C331.387 200.314 390.804 201.047 427.904 238.147C465.004 275.247 465.737 334.664 429.542 370.859L331.237 469.164C295.042 505.359 235.625 504.625 198.525 467.525C161.426 430.426 160.692 371.008 196.887 334.814L236.209 295.492C200.014 331.686 140.597 330.953 103.497 293.853C66.3974 256.753 65.6638 197.336 101.859 161.141L200.164 62.8362C236.359 26.6412 295.776 27.3748 332.876 64.4746C369.976 101.574 370.709 160.992 334.514 197.186L295.192 236.508ZM118.653 177.935C91.5063 205.081 92.0565 249.644 119.881 277.469C147.706 305.294 192.269 305.844 219.415 278.698L317.72 180.393C344.867 153.246 344.316 108.684 316.492 80.8587C288.667 53.0339 244.104 52.4837 216.958 79.6299L118.653 177.935Z" fill="#6A3458"/>
</g>
<defs>
<clipPath id="clip0_58_3">
<rect width="532" height="532" fill="white"/>
</clipPath>
</defs>
</svg>
